<!-- Generated by IcoMoon.io -->
<svg id="test" version="1.1" xmlns="http://www.w3.org/2000/svg" width="32" height="32" viewBox="0 0 32 32">
    <title>full-basket</title>
    <path
        d="M1.067 3.093c0 0.533 0.747 1.173 1.707 1.387 1.173 0.213 2.773 3.307 4.587 8.853l2.773 8.533 15.573 0.64 1.387-3.52c0.853-1.92 1.813-5.12 2.24-7.040l0.747-3.413h-22.187l-1.173-3.2c-0.853-2.133-1.92-3.2-3.413-3.2-1.28 0-2.24 0.427-2.24 0.96z">
    </path>
    <path
        d="M12.8 4.8c-1.173 1.387-0.427 1.6 5.44 1.6 6.293 0 6.613-0.107 5.013-1.813-1.493-1.493-2.133-1.493-3.52-0.32-1.28 1.067-2.027 1.067-2.88 0.213-1.707-1.707-2.453-1.6-4.053 0.32z">
    </path>
    <path
        d="M11.093 25.707c-1.067 1.813 1.387 3.84 2.88 2.347 1.28-1.28 0.427-3.52-1.173-3.52-0.533 0-1.28 0.533-1.707 1.173z">
    </path>
    <path
        d="M21.76 25.707c-1.067 1.813 1.387 3.84 2.88 2.347 1.28-1.28 0.427-3.52-1.173-3.52-0.533 0-1.28 0.533-1.707 1.173z">
    </path>
</svg>